<svg xmlns="http://www.w3.org/2000/svg" xmlns:xlink="http://www.w3.org/1999/xlink" width="33" height="24" viewBox="0 0 33 24"><defs><path id="9p92a" d="M1258 99c0-1.1.9-2 2-2h26a2 2 0 1 1 0 4h-26a2 2 0 0 1-2-2z"/><path id="9p92b" d="M1258 91c0-1.1.9-2 2-2h26a2 2 0 1 1 0 4h-26a2 2 0 0 1-2-2z"/><path id="9p92c" d="M1258 82c0-1.1.9-2 2-2h26a2 2 0 1 1 0 4h-26a2 2 0 0 1-2-2z"/></defs><g><g transform="translate(-1256 -78)"><g opacity=".6"><use xlink:href="#9p92a"/></g><g opacity=".6"><use xlink:href="#9p92b"/></g><g opacity=".6"><use xlink:href="#9p92c"/></g></g></g></svg>